<?xml version="1.0" encoding="utf-8" ?>
<svg xmlns="http://www.w3.org/2000/svg" xmlns:xlink="http://www.w3.org/1999/xlink" width="1600" height="1700">
	<path fill="#FEFEFE" d="M0 0L1600 0L1600 1600.1L1600 1698.55C1599.41 1698.88 1598.82 1699.27 1598.17 1699.48C1592.78 1701.29 1533.91 1700 1521.63 1700L1275.25 1700.01L19.8415 1700C14.2037 1700 4.87844 1701.31 0 1698.55L0 1600.13L0 0Z"/>
	<path fill="#626162" d="M948.801 650.995C954.18 654.923 959.125 659.032 963.822 663.76C960.485 663.81 956.953 662.975 953.652 662.465C953.092 662.184 951.975 661.068 951.482 660.642Q950.187 655.806 948.801 650.995Z"/>
	<path fill="#333" d="M481.125 705.365C486.09 711.397 489.807 717.637 491.927 725.233C489.923 725.148 487.721 724.782 485.804 725.395C483.384 718.81 480.415 713.923 475.956 708.518C478.018 707.655 479.484 706.96 481.125 705.365Z"/>
	<path fill="#626162" d="M431.118 1101.89L436.169 1104.95Q431.566 1112.76 427.167 1120.69C424.703 1121.5 422.223 1122.42 419.717 1123.08C422.85 1115.52 426.626 1108.73 431.118 1101.89Z"/>
	<path d="M445.998 1080.07C446.342 1079.72 446.691 1079.38 447.03 1079.02C454.555 1071.13 460.865 1059.4 467.026 1050.3C500.059 1001.49 520.302 962.124 529.241 903.466C529.668 900.661 529.598 894.885 531.969 893.481L535.262 893.662C536.995 900.248 534.718 910.476 533.442 917.134C526.508 953.318 512.957 986.416 494.451 1018.21C476.915 1048.34 455.363 1075.89 436.169 1104.95L431.118 1101.89C434.848 1096.18 444.12 1085.94 445.998 1080.07Z"/>
	<path d="M963.822 663.76C972.731 668.829 981.274 686.297 991.601 687.283C1003.23 688.393 1044.14 649.257 1054.83 640.423C1139.66 570.299 1232.72 526.365 1344.88 537.223C1360.56 538.741 1398.15 541.765 1407.81 554.15C1412.05 559.584 1412.56 567.59 1411.84 574.202C1405.75 629.958 1312.45 723.966 1270.13 758.361Q1284.73 765.963 1298.39 775.153C1325.82 793.826 1354.33 820.84 1360.5 854.869C1362.41 865.433 1362.62 877.986 1356.09 887.047C1349.01 896.849 1336.55 900.74 1325.07 902.162C1270.79 908.887 1171.49 874.755 1117.14 858.917C1093.33 851.982 1051.36 837.692 1027.62 841.687C998.39 846.606 949.368 868.205 931.749 892.877C936.226 902.897 942.449 912.72 944.112 923.722C945.409 932.311 943.488 941.414 938.191 948.384C929.204 960.211 911.863 964.253 897.89 966.016C870.364 969.49 840.169 966.035 817.73 948.606C774.506 968.545 722.381 971.166 675.376 969.755C671.788 969.647 666.763 969.945 664.132 967.166L664.186 965.773C665.769 963.717 666.205 963.497 668.942 963.527C717.55 964.055 767.811 964.133 813.104 944.121C806.054 935.083 800.864 922.85 802.182 911.19C802.917 904.691 805.947 898.9 811.119 894.848C816.176 890.885 825.029 887.118 831.568 888.118C836.211 888.829 839.449 892.207 841.944 895.957C846.126 902.241 847.555 909.321 845.954 916.724C843.174 929.572 833.441 938.425 823.053 945.459Q827.301 948.392 831.838 950.855C855.014 963.275 889.125 964.228 913.913 956.643C922.998 953.863 931.437 949.272 935.88 940.451C944.486 923.366 931.965 913.471 927.677 898.495C926.392 894.008 926.809 890.031 929.318 886.071C937.297 873.473 956.802 863.18 969.645 856.507C988.418 846.754 1012.07 836.188 1033.28 835.094C1057.44 833.849 1088.11 844.173 1111.25 850.925C1163.45 866.153 1283.87 907.217 1332.47 894.806C1340.27 892.811 1348.37 888.709 1352.43 881.427C1357.79 871.793 1355.62 857.298 1352.47 847.173C1340.26 807.968 1299.48 780.792 1264.88 762.43C1252.89 771.772 1239.69 780.913 1225.74 786.997C1209.92 793.899 1190.38 794.915 1174.21 788.404C1165.07 784.724 1157.58 778.022 1153.87 768.784C1151.27 762.311 1150.57 754.623 1153.45 748.123C1156.08 742.203 1161.38 738.25 1167.35 736.077C1194.86 726.053 1238.58 743.288 1264.19 755.443Q1282.13 741.056 1298.85 725.263Q1315.57 709.469 1330.96 692.373C1353.69 667.383 1408.52 602.094 1406 567.336C1405.66 562.592 1404.34 558.262 1400.53 555.196C1391.38 547.836 1353.24 543.897 1340.08 542.738C1259.48 535.636 1182.89 558.693 1115.5 602.558C1093.57 616.826 1072.72 633.152 1052.79 650.06C1038.62 662.073 1024.74 675.108 1009.59 685.86C1005.29 688.911 999.588 693.103 994.187 693.412C982.305 694.093 973.466 681.14 965.931 673.609C962.031 669.71 957.81 666.086 953.652 662.465C956.953 662.975 960.485 663.81 963.822 663.76Z"/>
	<path fill="#FEFEFE" d="M827.501 894.029C828.229 894.017 828.955 893.995 829.683 894.044C832.477 894.232 836.219 897.012 837.826 899.253C840.928 903.577 840.684 909.843 839.757 914.835C837.667 926.08 829.581 933.576 820.626 939.757C819.468 940.451 819.254 940.267 817.956 940.225C814.314 936.171 811.51 931.128 809.786 925.955C807.598 919.39 806.904 911.639 810.369 905.372C814.179 898.483 820.336 896.013 827.501 894.029Z"/>
	<path fill="#FEFEFE" d="M1177.87 739.782C1205.5 737.47 1234.13 748.149 1258.88 759.594C1249.63 766.334 1240.26 772.601 1230.21 778.11C1225.24 780.668 1220.06 783.086 1214.65 784.562C1201.27 788.216 1183.58 787.424 1171.48 780.19C1164.66 776.114 1159.43 769.492 1157.68 761.674C1156.71 757.379 1157.11 752.805 1159.59 749.076C1163.83 742.691 1170.83 741.017 1177.87 739.782Z"/>
	<path d="M355.226 691.709C363.209 677.846 371.078 666.124 383.08 655.429C426.986 616.307 482.449 599.155 539.522 590.336C559.752 587.21 582.48 585.716 601.639 578.437C617.773 572.306 632.841 559.877 647.538 550.761C698.052 519.425 757.574 486.663 819.061 490.656C832.029 491.498 858.049 494.602 866.868 505.365C869.754 508.887 870.697 513.221 870.07 517.683C866.539 542.779 826.296 571.097 806.435 585.281C854.549 599.262 909.211 619.433 948.801 650.995Q950.187 655.806 951.482 660.642C911.411 626.703 849.568 603.082 799.457 589.572C776.083 603.871 736.081 626.503 708.436 619.835C700.841 618.003 695.041 613.609 691.175 606.858C690.972 606.503 690.78 606.142 690.582 605.784C691.825 596.385 694.287 588.869 702.301 582.979C720.384 569.691 752.132 573.929 772.714 577.545C781.227 579.041 789.97 580.74 798.243 583.244C817.9 570.144 859.171 541.173 863.7 517.916C864.295 514.865 864.027 511.815 862.144 509.253C856.811 501.995 834.092 497.973 825.344 497.059C764.097 490.662 703.368 522.908 653.136 554.411C637.327 564.326 620.583 577.97 603.05 584.315C583.971 591.22 562.198 592.94 542.18 596.021C488.281 604.315 436.384 619.19 393.547 654.406C380.774 664.906 372.074 675.196 363.556 689.342C396.839 681.156 435.828 675.095 466.914 693.69C472.117 696.801 477.205 700.719 481.125 705.365C479.484 706.96 478.018 707.655 475.956 708.518C480.415 713.923 483.384 718.81 485.804 725.395C487.721 724.782 489.923 725.148 491.927 725.233C496.275 744.241 492.463 762.584 482.242 779.114C472.886 794.245 458.517 806.161 440.996 810.232C418.318 815.501 391.152 811.516 371.417 798.987C359.731 791.567 350.533 781.07 347.528 767.302C341.196 738.289 339.791 727.379 351.462 699.102C306.064 714.543 225.022 752.742 203.308 797.615C199.555 805.37 197.793 813.841 200.949 822.124C205.173 833.212 214.441 840.879 225.148 845.338C229.392 847.106 233.783 848.206 238.242 849.277C244.183 835.155 253.693 824.21 268.131 818.314C277.279 814.579 288.001 813.404 297.226 817.532C301.664 819.518 306.03 822.87 307.759 827.58C308.862 830.585 308.398 833.88 306.84 836.633C301.622 845.852 286.191 851.186 276.448 853.541Q272.359 854.509 268.207 855.152Q264.055 855.794 259.866 856.108Q255.676 856.421 251.474 856.403Q247.273 856.385 243.086 856.036C245.52 870.038 251.949 877.367 263.3 885.299C290.289 904.161 368.108 933.591 401.574 939.794C416.204 942.505 431.515 943.486 446.22 940.743C476.468 935.1 502.223 912.93 518.985 887.885C524.91 879.031 528.653 869.65 531.472 859.43C516.017 849.863 491.953 837.183 487.076 818.238C485.625 812.603 486.001 806.52 489.105 801.489C491.573 797.492 495.454 794.788 500.029 793.765C506.463 792.327 513.137 794.119 518.558 797.706C529.398 804.88 535.419 818.288 537.649 830.714C539.169 839.189 538.929 847.876 538.276 856.43C590.511 886.911 639.6 939.843 655.289 999.155C666.176 1040.31 661.541 1086.41 639.924 1123.42C632.98 1135.3 624.354 1146.99 610.216 1150.3C584.546 1156.31 565.78 1129.83 541.246 1132.78C532.243 1133.86 523.41 1137.42 514.853 1140.3C491 1148.33 449.654 1164.36 426.446 1148.99C422.197 1146.17 418.994 1141.99 417.96 1136.94C417.189 1133.18 417.88 1129.49 418.757 1125.81L419.717 1123.08C422.223 1122.42 424.703 1121.5 427.167 1120.69C425.074 1125.9 423.065 1130.62 424.154 1136.38C424.786 1139.72 426.56 1142.46 429.4 1144.35C433.481 1147.06 438.951 1147.98 443.751 1148.58C469.442 1151.78 497.416 1139.75 521.497 1131.85C528.853 1129.44 537.689 1126.01 545.458 1125.95C565.536 1125.8 582.084 1144.82 602.725 1145.1Q606.029 1145.15 609.243 1144.38C621.685 1141.31 629.923 1129.08 635.807 1118.57C656.296 1081.95 660.095 1037.02 648.433 996.977C633.211 944.704 584.654 888.993 536.793 862.71C532.953 878.114 524.926 891.394 514.698 903.383C494.089 927.54 469.41 945.527 436.905 948.048C422.406 949.173 407.82 947.388 393.667 944.257C359.706 936.743 277.739 906.368 252.384 884.422C243.007 876.305 238.221 867.837 237.258 855.346C231.464 854.05 225.718 852.37 220.322 849.868C208.693 844.477 198.742 834.777 194.594 822.446C191.388 812.915 193.959 802.652 198.408 793.984C222.896 746.268 306.08 707.183 355.226 691.709Z"/>
	<path fill="#FEFEFE" d="M279.76 821.048C283.987 820.829 287.97 820.645 292.109 821.803C295.584 822.775 300.443 825.376 301.827 828.969C302.591 830.952 302.212 832.437 301.285 834.251C297.178 842.289 277.497 847.067 269.508 848.843C261.15 850.366 252.896 850.459 244.43 850.091C245.314 848.012 246.212 845.902 247.343 843.942C254.51 831.528 266.203 824.541 279.76 821.048Z"/>
	<path fill="#FEFEFE" d="M499.157 799.606C506.134 798.69 511.459 799.556 517.13 804.045C526.824 811.718 531.055 825.555 532.602 837.348C533.138 841.437 534.128 848.642 531.56 851.966L529.191 850.996C517.707 843.817 503.768 835.416 496.188 823.954C493.41 819.753 491.241 814.645 492.413 809.546C493.352 805.459 495.645 801.854 499.157 799.606Z"/>
	<path fill="#FEFEFE" d="M729.987 580.537C749.779 578.129 772.105 583.208 791.438 587.562Q781.622 593.452 771.348 598.5Q761.073 603.548 750.413 607.718C742.938 610.37 735.455 612.799 727.592 614.006C719.316 615.277 708.899 615.626 701.961 610.213C699.384 608.202 697.432 605.401 697.152 602.072C696.864 598.658 698.352 595.329 700.473 592.735C707.608 584.011 719.439 581.735 729.987 580.537Z"/>
	<path fill="#FEFEFE" d="M394.488 706.535C404.685 705.912 414.176 707.129 422.259 714.046C430.348 720.968 434.227 731.319 434.81 741.746C435.357 751.537 432.793 761.117 425.974 768.415C417.398 777.592 406.349 780.113 394.347 780.598C389.448 780.498 384.572 779.906 379.847 778.588C367.198 775.06 358.415 767.612 352.076 756.234C352.991 746.028 355.961 736.677 361.669 728.096C369.545 716.255 380.684 709.322 394.488 706.535Z"/>
	<path fill="#FEFEFE" d="M359.499 696.841C376.788 691.156 396.537 687.823 414.64 687.44C437.182 686.963 459.47 692.561 475.956 708.518C480.415 713.923 483.384 718.81 485.804 725.395C489.082 736.874 488.283 749.35 484.486 760.595C478.932 777.046 466.685 792.615 450.939 800.33C433.148 809.047 409.118 807.8 390.772 801.539C374.153 795.868 362.198 786.404 354.335 770.627C359.157 774.884 364.194 778.561 370.028 781.316C383.403 787.633 399.693 788.495 413.632 783.467C424.098 779.692 432.911 772.222 437.462 761.926C442.382 750.796 441.758 736.697 437.356 725.474C433.422 715.445 426.11 707.561 416.121 703.319C405.446 698.785 392.044 699.477 381.428 703.883C364.091 711.078 354.905 725.657 348.015 742.336C348.001 725.511 352.028 711.844 359.499 696.841Z"/>
	<path fill="#333" d="M0 1600.13L1600 1600.1L1600 1698.55C1599.41 1698.88 1598.82 1699.27 1598.17 1699.48C1592.78 1701.29 1533.91 1700 1521.63 1700L1275.25 1700.01L19.8415 1700C14.2037 1700 4.87844 1701.31 0 1698.55L0 1600.13Z"/>
	<path fill="#FEFEFE" d="M207.232 1640.43Q210.025 1640.94 212.806 1641.51C213.478 1646.29 214.406 1658.73 212.393 1662.79C210.35 1663.79 210.157 1664.11 207.97 1663.66C204.748 1658.49 206.756 1646.49 207.232 1640.43Z"/>
	<path fill="#FEFEFE" d="M196.595 1640.45C198.424 1640.78 201.091 1641.01 202.763 1641.75C204.652 1642.59 204.715 1643.56 205.167 1645.33C204.439 1647.29 204.545 1647.53 202.77 1648.57C201.001 1647.44 199.981 1647.06 197.891 1646.87L197.553 1647.67C199.093 1650.51 203.195 1651.63 205.381 1654.36C205.741 1656.8 205.577 1658.52 204.096 1660.58C202.812 1662.37 202.498 1662.18 200.417 1662.5C198.839 1663.7 198.116 1663.77 196.224 1664.23C194.771 1663.84 193.83 1663.74 193.034 1662.28C192.026 1660.43 192.36 1658.85 192.891 1656.94C194.983 1655.92 196.551 1658.24 199.109 1658.15L199.311 1657.29C198.589 1654.95 197.417 1653.81 195.301 1652.72C194.192 1652.14 193.217 1651.65 192.236 1650.86C190.953 1649.84 191.302 1649.5 191.138 1647.94C192.417 1644.83 194.33 1642.86 196.595 1640.45Z"/>
	<path fill="#FEFEFE" d="M338.51 1640.44C340.018 1640.69 341.634 1640.9 343.086 1641.37C345.293 1642.1 346.366 1642.8 347.514 1644.75C346.589 1646.73 346.281 1647.05 344.506 1648.34C342.695 1647.26 341.789 1646.6 339.603 1646.66C338.681 1648.79 347.327 1652.4 348.493 1656.57C348.233 1657.78 347.935 1658.65 347.226 1659.67C345.733 1661.82 345.753 1662.02 343.154 1662.42C341.908 1663.4 340.727 1664.13 339.071 1664.23C337.011 1664.35 336.361 1663.45 335.069 1662.13C334.41 1659.8 334.254 1659.32 334.846 1657C337.538 1656.06 338.841 1658.44 341.708 1658.08L341.643 1656.26C339.826 1653.62 337.011 1653.8 334.587 1652.18C333.652 1651.55 332.975 1650.77 333.01 1649.63C333.119 1646 336.168 1642.91 338.51 1640.44Z"/>
	<path fill="#FEFEFE" d="M303.942 1633.94L305.877 1635.45C305.9 1637.49 305.959 1638.75 306.772 1640.68L310.407 1641.26C311.133 1642.91 311.013 1643.21 310.726 1645.02Q309.928 1645.74 309.154 1646.48C306.435 1649.11 305.767 1650.74 305.707 1654.52C306.625 1656.95 307.926 1657.96 310.161 1659.23C310.464 1659.4 310.776 1659.55 311.084 1659.71L311.143 1661.4L309.975 1662.62C307.647 1663.93 307.073 1663.82 304.489 1663.76C303.248 1663.11 302.497 1662.61 301.695 1661.41C298.899 1657.23 298.006 1645.73 298.994 1640.91C299.682 1637.55 301.222 1635.87 303.942 1633.94Z"/>
	<path fill="#FEFEFE" d="M220.648 1633.74C221.52 1634.16 222.173 1634.72 222.931 1635.31C222.948 1637.05 223.134 1638.29 223.697 1639.94C225.818 1641.58 227.485 1642.83 228.798 1645.2L228.25 1646.45C226.225 1646.72 224.891 1646.68 223.381 1648.19C222.6 1650.4 222.513 1653.74 223.091 1656.03C223.63 1658.17 226.341 1658.74 228.139 1659.59L228.391 1661L226.989 1662.73C225.559 1663.75 224.456 1664.02 222.728 1663.96C221.121 1663.9 219.942 1663.16 218.996 1661.91C215.817 1657.73 215.058 1645.9 215.98 1640.9C216.59 1637.59 217.973 1635.68 220.648 1633.74Z"/>
	<path fill="#FEFEFE" d="M284.069 1640.34C287.217 1641.36 290.037 1641.02 292.865 1643.14C295.598 1645.19 297.797 1648.8 298.117 1652.23C298.352 1654.75 297.618 1657.92 295.777 1659.76C293.877 1661.65 292.636 1662.25 290.04 1662.44C288.459 1663.64 287.386 1664.06 285.384 1663.89C282.667 1663.65 280.385 1662.47 278.711 1660.3C276.653 1657.62 276.085 1654.17 276.517 1650.87C277.193 1645.72 280.298 1643.38 284.069 1640.34Z"/>
	<path fill="#333" d="M284.213 1646.21C286.15 1646.51 288.414 1646.66 289.982 1647.94C291.952 1649.55 292.836 1651.45 293.145 1653.9C292.16 1655.27 291.581 1655.83 290.042 1656.53C289.648 1656.88 289.311 1657.31 288.861 1657.59C287.283 1658.56 286.016 1658.32 284.353 1658C282.769 1656.63 282.171 1655.63 281.78 1653.61C281.16 1650.41 282.469 1648.67 284.213 1646.21Z"/>
	<path fill="#FEFEFE" d="M318.993 1640.38C319.096 1640.41 319.196 1640.45 319.303 1640.48C322.142 1641.02 325.001 1641.14 327.459 1642.84C330.344 1644.82 332.643 1648.27 333.086 1651.78C333.409 1654.33 332.658 1657.34 331.023 1659.35C329.266 1661.51 327.552 1662.3 324.894 1662.46C323.672 1663.41 322.779 1663.95 321.168 1663.92C318.4 1663.86 316.042 1662.92 314.171 1660.85C311.72 1658.13 311.013 1654.44 311.47 1650.88C312.129 1645.76 315.272 1643.43 318.993 1640.38Z"/>
	<path fill="#333" d="M319.414 1646.3C322.279 1646.76 324.271 1646.94 326.205 1649.33C327.585 1651.04 327.959 1652.53 327.761 1654.71C326.338 1656.2 326.069 1656.32 324.073 1656.85C323.678 1657.15 323.314 1657.5 322.887 1657.76C321.511 1658.59 320.243 1658.31 318.806 1657.92C317.416 1656.53 317.011 1655.51 316.757 1653.61C316.321 1650.36 317.586 1648.75 319.414 1646.3Z"/>
	<path fill="#FEFEFE" d="M118.097 1629.53L122.021 1630.16C127.231 1634.92 121.956 1642.23 124.672 1647.71Q126.687 1645.86 128.856 1644.2C131.625 1642.1 135.573 1639.55 139.25 1640.5C141.208 1641.01 143.042 1642.77 143.834 1644.64C143.84 1644.65 144.501 1646.39 144.399 1646.65C143.131 1649.96 136.186 1653.53 134.455 1658.33C136.52 1658.91 139.482 1657.16 141.527 1656.35L142.73 1657.09C143.143 1659.25 143.066 1659.55 142.275 1661.61C140.159 1662.91 139.851 1662.86 137.346 1662.77C136.035 1663.61 135.22 1663.99 133.604 1663.88C129.537 1663.61 127.162 1660.32 125.048 1657.25L124.477 1656.41L123.565 1656.49C121.397 1659.72 119.328 1662.44 115.436 1663.58C112.622 1664.4 109.685 1664 107.128 1662.59C103.94 1660.84 102.187 1657.87 101.251 1654.45C100.501 1651.71 99.9649 1648.23 101.801 1645.77C103.87 1643.01 107.321 1642.58 110.492 1642.29C112.792 1642.08 114.822 1641.79 117.06 1641.23C118.392 1637.77 118 1633.22 118.097 1629.53Z"/>
	<path fill="#333" d="M109.556 1646.26C110.649 1646.39 111.855 1646.49 112.931 1646.77Q113.309 1646.87 113.674 1647.01Q114.039 1647.14 114.387 1647.32Q114.734 1647.5 115.061 1647.71Q115.387 1647.93 115.689 1648.17Q115.99 1648.42 116.263 1648.7Q116.535 1648.98 116.776 1649.29Q117.017 1649.59 117.223 1649.93Q117.428 1650.26 117.597 1650.61C118.449 1652.37 118.62 1653.53 118.059 1655.38C116.804 1656.39 115.991 1656.68 114.416 1657.01C114.076 1657.23 113.76 1657.5 113.395 1657.68C111.609 1658.57 110.746 1658.25 108.897 1657.85C107.504 1656.46 107.112 1655.47 106.878 1653.57C106.478 1650.3 107.721 1648.74 109.556 1646.26Z"/>
	<path fill="#FEFEFE" d="M254.131 1629.5C255.819 1629.81 257.475 1630.17 259.142 1630.58C260.814 1632.77 260.088 1638.3 260.087 1641.07L260.927 1641.71C262.965 1641.39 265.249 1640.79 267.257 1641.43C269.158 1642.04 270.186 1644.25 270.932 1645.9C273.192 1650.91 276.533 1658.41 274.54 1663.78L273.104 1664.18C267.353 1660.1 269.229 1651.42 265.048 1647.23C264.222 1646.4 263.06 1646.61 261.968 1646.52C258.661 1649.28 260.806 1658.34 259.419 1662.83C257.655 1664.33 257.616 1664.18 255.268 1664.15C253.597 1662.46 254.041 1661.05 253.933 1658.72L253.411 1658.08C246.229 1664.55 245.53 1664.21 236.188 1663.83C235.564 1666.81 236.815 1669.56 234.834 1671.9L231.115 1671.93C229.129 1669.49 229.66 1664.28 229.687 1661.23C229.74 1655.08 229.944 1647.23 234.927 1642.79C236.625 1641.27 238.757 1640.43 241.046 1640.55C244.781 1640.75 248.098 1642.09 250.664 1644.81C251.556 1645.75 252.189 1646.56 253.288 1647.28C253.498 1647.42 253.727 1647.53 253.947 1647.66Q253.86 1638.58 254.131 1629.5Z"/>
	<path fill="#333" d="M239.137 1646.22C242.345 1646.73 244.472 1646.98 246.66 1649.54C248.084 1651.2 248.696 1653.01 248.522 1655.2C247.334 1656.17 246.467 1656.64 245.008 1657.11C244.8 1657.25 244.599 1657.4 244.382 1657.53C242.278 1658.79 240.887 1658.64 238.573 1658.08C237.187 1656.56 236.836 1656.09 236.438 1654C235.797 1650.64 237.324 1648.83 239.137 1646.22Z"/>
	<path fill="#FEFEFE" d="M153.501 1640.37C155.429 1640.87 157.52 1640.93 159.484 1641.38C163.332 1642.24 164.982 1644.68 167.033 1647.85L167.544 1648.66L167.745 1647.1L168.029 1649.31C169.232 1647.2 170.487 1644.97 172.564 1643.6C175.509 1641.66 179.798 1640.1 183.333 1641C185.839 1641.64 187.699 1643.5 188.88 1645.74C190.77 1649.31 190.955 1654.03 189.466 1657.78C188.43 1660.39 186.44 1662.84 183.627 1663.61C180.6 1664.44 177.54 1663.76 175.024 1662.04L173.492 1662.02C171.14 1660.8 170.158 1659.06 168.705 1656.89L168.071 1655.93C166.859 1657.88 165.169 1661.29 163.231 1662.55C159.762 1664.8 155.651 1663.79 151.783 1663.38C150.4 1665.45 151.424 1668.94 150.696 1671.54C148.676 1672.3 148.465 1672.59 146.446 1671.95C143.527 1667.57 144.647 1657.27 145.1 1651.91C145.583 1646.2 149.374 1643.69 153.501 1640.37Z"/>
	<path fill="#333" d="M176.503 1646.34C177.29 1646.37 178.079 1646.39 178.863 1646.47C181.175 1646.69 182.605 1647.47 184.005 1649.29C185.427 1651.13 185.55 1652.6 185.201 1654.82C183.719 1656.24 183.326 1656.41 181.333 1656.94C181.036 1657.15 180.757 1657.38 180.443 1657.56C178.911 1658.43 177.782 1658.16 176.155 1657.8C174.69 1656.19 173.988 1654.95 173.814 1652.72C173.602 1649.97 174.952 1648.39 176.503 1646.34Z"/>
	<path fill="#333" d="M153.772 1646.18C155.992 1646.54 158.247 1646.76 159.967 1648.34C161.892 1650.11 162.892 1651.78 162.999 1654.42C161.921 1655.61 161.268 1656.17 159.754 1656.74C159.284 1657.22 158.874 1657.71 158.263 1658.04C156.685 1658.91 155.378 1658.94 153.716 1658.45C152.062 1656.94 151.55 1655.85 151.2 1653.69C150.679 1650.48 152.068 1648.69 153.772 1646.18Z"/>
	<path fill="#FEFEFE" d="M63.9724 1621.16C65.5109 1621.76 64.9835 1621.67 66.3907 1621.83C78.5221 1623.21 82.3227 1624.7 90.7544 1633.82C92.3778 1635.57 93.6843 1637.2 95.8616 1638.32C95.9706 1645.04 97.9434 1654.87 96.5244 1661.24C95.6028 1665.37 92.3583 1668.17 88.9203 1670.32C84.8169 1672.89 78.4624 1677.64 73.4432 1676.45C69.3239 1678.36 65.5191 1678.18 61.1095 1677.28C54.2344 1675.88 48.4014 1670.83 44.8261 1664.93Q44.4374 1664.3 44.0815 1663.64Q43.7256 1662.99 43.4034 1662.32Q43.0812 1661.65 42.7935 1660.96Q42.5059 1660.28 42.2534 1659.58Q42.001 1658.88 41.7845 1658.17Q41.568 1657.46 41.388 1656.74Q41.208 1656.02 41.065 1655.29Q40.9219 1654.56 40.8162 1653.82Q40.7105 1653.08 40.6423 1652.34Q40.5742 1651.6 40.5438 1650.86Q40.5135 1650.12 40.5209 1649.37Q40.5284 1648.63 40.5738 1647.89Q40.6191 1647.15 40.7021 1646.41Q40.7852 1645.67 40.9057 1644.93Q41.0262 1644.2 41.184 1643.47Q41.3417 1642.75 41.5362 1642.03C44.8927 1629.71 52.7979 1627.43 62.6549 1621.9L63.9724 1621.16Z"/>
	<path fill="#333" d="M64.7502 1633.81C73.6991 1634.82 77.1663 1635.11 86.2552 1637.77C88.8514 1638.53 90.8267 1638.83 92.0196 1641.47C94.3319 1646.59 94.1512 1657.99 92.1952 1663.08C91.6235 1664.57 90.5098 1666.2 88.9633 1666.75C85.8925 1667.84 82.9349 1666.76 80.1451 1665.44C78.9458 1666.12 78.0309 1666.51 76.6544 1666.75C71.6441 1667.62 55.7123 1668.1 51.7638 1665.13C50.5596 1658.99 49.5786 1645.12 52.4018 1639.58C54.9174 1637.56 57.6605 1638.49 60.5452 1637.83C63.1499 1637.23 63.477 1635.88 64.7502 1633.81Z"/>
	<path fill="#FEFEFE" d="M70.1521 1640.43C70.5641 1640.55 70.975 1640.68 71.3882 1640.79C74.2192 1641.58 77.0337 1642.08 79.1399 1644.28C81.5404 1646.8 83.0342 1650.49 82.7587 1653.99C82.5702 1656.39 81.4402 1659.46 79.436 1660.94C77.1492 1662.63 76.1883 1662.85 73.4476 1662.44C71.6368 1663.54 70.2889 1663.72 68.2335 1663.31C65.7212 1662.81 63.6998 1661.6 62.2717 1659.41C60.2638 1656.33 60.0792 1652.65 61.0527 1649.16C62.3948 1644.36 66.0517 1642.6 70.1521 1640.43Z"/>
</svg>
